<svg width="194" height="58" viewBox="0 0 194 58" fill="none" xmlns="http://www.w3.org/2000/svg">
<path d="M55.0898 15.64C55.0898 17 54.6098 18.176 53.6498 19.168C52.6898 20.144 51.2898 20.848 49.4498 21.28C50.4418 21.552 51.1938 22 51.7058 22.624C52.2178 23.232 52.4738 23.936 52.4738 24.736C52.4738 26 52.0738 27.096 51.2738 28.024C50.4898 28.952 49.3378 29.672 47.8178 30.184C46.2978 30.68 44.4658 30.928 42.3218 30.928C41.5218 30.928 40.8818 30.904 40.4018 30.856C40.3858 31.304 40.1938 31.64 39.8258 31.864C39.4578 32.088 38.9858 32.2 38.4098 32.2C37.8338 32.2 37.4338 32.072 37.2098 31.816C37.0018 31.56 36.9138 31.184 36.9458 30.688C37.0898 28.448 37.3698 26.104 37.7858 23.656C38.2018 21.192 38.7298 18.816 39.3698 16.528C39.4818 16.128 39.7058 15.848 40.0418 15.688C40.3778 15.528 40.8178 15.448 41.3618 15.448C42.3378 15.448 42.8258 15.72 42.8258 16.264C42.8258 16.488 42.7778 16.744 42.6818 17.032C42.2658 18.28 41.8498 19.976 41.4338 22.12C41.0178 24.248 40.7218 26.28 40.5458 28.216C41.3138 28.28 41.9378 28.312 42.4178 28.312C44.6578 28.312 46.2978 27.992 47.3378 27.352C48.3938 26.696 48.9218 25.864 48.9218 24.856C48.9218 24.152 48.6178 23.56 48.0098 23.08C47.4178 22.6 46.4178 22.336 45.0098 22.288C44.6898 22.272 44.4658 22.192 44.3378 22.048C44.2098 21.904 44.1458 21.672 44.1458 21.352C44.1458 20.888 44.2418 20.512 44.4338 20.224C44.6258 19.936 44.9778 19.784 45.4898 19.768C46.6258 19.736 47.6498 19.568 48.5618 19.264C49.4898 18.96 50.2178 18.536 50.7458 17.992C51.2738 17.432 51.5378 16.784 51.5378 16.048C51.5378 15.12 51.0818 14.392 50.1698 13.864C49.2578 13.32 47.8578 13.048 45.9698 13.048C44.2578 13.048 42.6018 13.272 41.0018 13.72C39.4018 14.152 38.0418 14.704 36.9218 15.376C36.4098 15.68 35.9778 15.832 35.6258 15.832C35.3378 15.832 35.1138 15.736 34.9538 15.544C34.8098 15.336 34.7378 15.08 34.7378 14.776C34.7378 14.376 34.8178 14.032 34.9778 13.744C35.1538 13.456 35.5618 13.128 36.2018 12.76C37.5458 11.992 39.1218 11.392 40.9298 10.96C42.7378 10.528 44.5858 10.312 46.4738 10.312C49.3698 10.312 51.5298 10.8 52.9538 11.776C54.3778 12.752 55.0898 14.04 55.0898 15.64ZM66.6576 23.632C66.8656 23.632 67.0256 23.736 67.1376 23.944C67.2496 24.152 67.3056 24.416 67.3056 24.736C67.3056 25.504 67.0736 25.96 66.6096 26.104C65.6496 26.44 64.5936 26.632 63.4416 26.68C63.1376 28.024 62.5376 29.104 61.6416 29.92C60.7456 30.72 59.7296 31.12 58.5936 31.12C57.6336 31.12 56.8096 30.888 56.1216 30.424C55.4496 29.96 54.9376 29.344 54.5856 28.576C54.2336 27.808 54.0576 26.976 54.0576 26.08C54.0576 24.864 54.2896 23.784 54.7536 22.84C55.2176 21.88 55.8576 21.136 56.6736 20.608C57.4896 20.064 58.3936 19.792 59.3856 19.792C60.6016 19.792 61.5776 20.216 62.3136 21.064C63.0656 21.896 63.5056 22.928 63.6336 24.16C64.3856 24.112 65.2816 23.952 66.3216 23.68C66.4496 23.648 66.5616 23.632 66.6576 23.632ZM58.7856 28.576C59.2976 28.576 59.7376 28.368 60.1056 27.952C60.4896 27.536 60.7456 26.936 60.8736 26.152C60.3776 25.816 59.9936 25.376 59.7216 24.832C59.4656 24.288 59.3376 23.712 59.3376 23.104C59.3376 22.848 59.3616 22.592 59.4096 22.336H59.2896C58.6496 22.336 58.1136 22.648 57.6816 23.272C57.2656 23.88 57.0576 24.744 57.0576 25.864C57.0576 26.744 57.2256 27.416 57.5616 27.88C57.9136 28.344 58.3216 28.576 58.7856 28.576ZM66.9498 31.12C66.3418 31.12 65.9098 30.8 65.6538 30.16C65.4138 29.52 65.2938 28.496 65.2938 27.088C65.2938 25.008 65.5898 23.032 66.1818 21.16C66.3258 20.696 66.5578 20.36 66.8778 20.152C67.2138 19.928 67.6778 19.816 68.2698 19.816C68.5898 19.816 68.8138 19.856 68.9418 19.936C69.0698 20.016 69.1338 20.168 69.1338 20.392C69.1338 20.648 69.0138 21.224 68.7738 22.12C68.6138 22.76 68.4858 23.32 68.3898 23.8C68.2938 24.28 68.2138 24.872 68.1498 25.576C68.6778 24.2 69.2698 23.08 69.9258 22.216C70.5818 21.352 71.2218 20.736 71.8458 20.368C72.4858 20 73.0698 19.816 73.5978 19.816C74.1098 19.816 74.4938 19.952 74.7498 20.224C75.0218 20.48 75.1578 20.864 75.1578 21.376C75.1578 21.792 75.0698 22.576 74.8938 23.728C74.7338 24.704 74.6058 25.632 74.5098 26.512C74.4138 27.376 74.3658 28.344 74.3658 29.416C74.3658 30.024 74.2378 30.464 73.9818 30.736C73.7418 30.992 73.3418 31.12 72.7818 31.12C72.2538 31.12 71.8698 30.984 71.6298 30.712C71.3898 30.44 71.2698 30.032 71.2698 29.488C71.2698 28.848 71.3818 27.792 71.6058 26.32C71.7978 25.04 71.8938 24.224 71.8938 23.872C71.8938 23.616 71.8058 23.488 71.6298 23.488C71.4218 23.488 71.1258 23.76 70.7418 24.304C70.3738 24.832 69.9898 25.536 69.5898 26.416C69.2058 27.296 68.8938 28.224 68.6538 29.2C68.4778 29.952 68.2698 30.464 68.0298 30.736C67.8058 30.992 67.4458 31.12 66.9498 31.12ZM86.1743 31.12C85.1823 31.12 84.3903 30.76 83.7983 30.04C83.2063 29.32 82.9103 28.376 82.9103 27.208C82.9103 25.928 83.2063 24.72 83.7983 23.584C84.3903 22.432 85.1743 21.512 86.1503 20.824C87.1423 20.12 88.1903 19.768 89.2943 19.768C89.6463 19.768 89.8783 19.84 89.9903 19.984C90.1183 20.112 90.2223 20.352 90.3023 20.704C90.6383 20.64 90.9903 20.608 91.3583 20.608C92.1423 20.608 92.5343 20.888 92.5343 21.448C92.5343 21.784 92.4143 22.584 92.1743 23.848C91.8063 25.688 91.6223 26.968 91.6223 27.688C91.6223 27.928 91.6783 28.12 91.7903 28.264C91.9183 28.408 92.0783 28.48 92.2703 28.48C92.5743 28.48 92.9423 28.288 93.3743 27.904C93.8063 27.504 94.3903 26.864 95.1263 25.984C95.3183 25.76 95.5343 25.648 95.7743 25.648C95.9823 25.648 96.1423 25.744 96.2543 25.936C96.3823 26.128 96.4463 26.392 96.4463 26.728C96.4463 27.368 96.2943 27.864 95.9903 28.216C95.3343 29.032 94.6383 29.72 93.9023 30.28C93.1663 30.84 92.4543 31.12 91.7663 31.12C91.2383 31.12 90.7503 30.944 90.3023 30.592C89.8703 30.224 89.5423 29.728 89.3183 29.104C88.4863 30.448 87.4383 31.12 86.1743 31.12ZM87.0383 28.696C87.3903 28.696 87.7263 28.488 88.0463 28.072C88.3663 27.656 88.5983 27.104 88.7423 26.416L89.6303 22C88.9583 22.016 88.3343 22.272 87.7583 22.768C87.1983 23.248 86.7503 23.888 86.4143 24.688C86.0783 25.488 85.9103 26.336 85.9103 27.232C85.9103 27.728 86.0063 28.096 86.1983 28.336C86.4063 28.576 86.6863 28.696 87.0383 28.696ZM107.312 25.648C107.52 25.648 107.68 25.744 107.792 25.936C107.92 26.128 107.984 26.392 107.984 26.728C107.984 27.368 107.832 27.864 107.528 28.216C106.84 29.064 106.096 29.76 105.296 30.304C104.512 30.848 103.616 31.12 102.608 31.12C101.76 31.12 101.072 30.816 100.544 30.208C99.6318 30.8 98.6798 31.104 97.6878 31.12C97.4798 34.208 97.0078 36.784 96.2718 38.848C95.5358 40.928 94.4558 41.968 93.0317 41.968C92.1677 41.968 91.5277 41.656 91.1117 41.032C90.6957 40.408 90.4877 39.544 90.4877 38.44C90.4877 36.872 90.8477 35.04 91.5677 32.944C92.2877 30.864 93.3998 28.568 94.9038 26.056C94.9038 23.72 94.8878 22.096 94.8558 21.184C94.8398 20.72 95.0238 20.352 95.4078 20.08C95.7918 19.808 96.2718 19.672 96.8478 19.672C97.1838 19.672 97.4238 19.744 97.5678 19.888C97.7278 20.016 97.8158 20.28 97.8318 20.68C97.8318 21.08 97.8398 21.376 97.8558 21.568C98.3678 20.928 98.8718 20.472 99.3678 20.2C99.8638 19.912 100.392 19.768 100.952 19.768C101.848 19.768 102.576 20.128 103.136 20.848C103.712 21.568 104 22.512 104 23.68C104 24.528 103.864 25.352 103.592 26.152C103.32 26.952 102.944 27.68 102.464 28.336C102.8 28.432 103.08 28.48 103.304 28.48C103.832 28.48 104.336 28.288 104.816 27.904C105.296 27.52 105.912 26.88 106.664 25.984C106.856 25.76 107.072 25.648 107.312 25.648ZM97.8078 28.816C98.3838 28.688 98.9118 28.376 99.3918 27.88C99.8878 27.368 100.28 26.744 100.568 26.008C100.856 25.256 101 24.472 101 23.656C101 23.176 100.904 22.816 100.712 22.576C100.52 22.32 100.264 22.192 99.9438 22.192C99.3678 22.192 98.6718 22.8 97.8558 24.016C97.8398 24.72 97.8318 25.752 97.8318 27.112C97.8318 27.848 97.8238 28.416 97.8078 28.816ZM93.2237 39.616C93.6558 39.616 94.0158 38.672 94.3038 36.784C94.5918 34.912 94.7758 32.576 94.8558 29.776C94.1678 31.376 93.6238 32.904 93.2237 34.36C92.8237 35.816 92.6237 37.04 92.6237 38.032C92.6237 38.544 92.6877 38.936 92.8157 39.208C92.9277 39.48 93.0637 39.616 93.2237 39.616ZM118.866 25.648C119.074 25.648 119.234 25.744 119.346 25.936C119.474 26.128 119.538 26.392 119.538 26.728C119.538 27.368 119.386 27.864 119.082 28.216C118.394 29.064 117.65 29.76 116.85 30.304C116.066 30.848 115.17 31.12 114.162 31.12C113.314 31.12 112.626 30.816 112.098 30.208C111.186 30.8 110.234 31.104 109.242 31.12C109.034 34.208 108.562 36.784 107.826 38.848C107.09 40.928 106.01 41.968 104.586 41.968C103.722 41.968 103.082 41.656 102.666 41.032C102.25 40.408 102.042 39.544 102.042 38.44C102.042 36.872 102.402 35.04 103.122 32.944C103.842 30.864 104.954 28.568 106.458 26.056C106.458 23.72 106.442 22.096 106.41 21.184C106.394 20.72 106.578 20.352 106.962 20.08C107.346 19.808 107.826 19.672 108.402 19.672C108.738 19.672 108.978 19.744 109.122 19.888C109.282 20.016 109.37 20.28 109.386 20.68C109.386 21.08 109.394 21.376 109.41 21.568C109.922 20.928 110.426 20.472 110.922 20.2C111.418 19.912 111.946 19.768 112.506 19.768C113.402 19.768 114.13 20.128 114.69 20.848C115.266 21.568 115.554 22.512 115.554 23.68C115.554 24.528 115.418 25.352 115.146 26.152C114.874 26.952 114.498 27.68 114.018 28.336C114.354 28.432 114.634 28.48 114.858 28.48C115.386 28.48 115.89 28.288 116.37 27.904C116.85 27.52 117.466 26.88 118.218 25.984C118.41 25.76 118.626 25.648 118.866 25.648ZM109.362 28.816C109.938 28.688 110.466 28.376 110.946 27.88C111.442 27.368 111.834 26.744 112.122 26.008C112.41 25.256 112.554 24.472 112.554 23.656C112.554 23.176 112.458 22.816 112.266 22.576C112.074 22.32 111.818 22.192 111.498 22.192C110.922 22.192 110.226 22.8 109.41 24.016C109.394 24.72 109.386 25.752 109.386 27.112C109.386 27.848 109.378 28.416 109.362 28.816ZM104.778 39.616C105.21 39.616 105.57 38.672 105.858 36.784C106.146 34.912 106.33 32.576 106.41 29.776C105.722 31.376 105.178 32.904 104.778 34.36C104.378 35.816 104.178 37.04 104.178 38.032C104.178 38.544 104.242 38.936 104.37 39.208C104.482 39.48 104.618 39.616 104.778 39.616ZM128.309 25.648C128.517 25.648 128.677 25.744 128.789 25.936C128.917 26.128 128.981 26.392 128.981 26.728C128.981 27.368 128.829 27.864 128.525 28.216C127.933 28.936 127.093 29.6 126.005 30.208C124.933 30.816 123.781 31.12 122.549 31.12C120.869 31.12 119.565 30.664 118.637 29.752C117.709 28.84 117.245 27.592 117.245 26.008C117.245 24.904 117.477 23.88 117.941 22.936C118.405 21.976 119.045 21.216 119.861 20.656C120.693 20.096 121.629 19.816 122.669 19.816C123.597 19.816 124.341 20.096 124.901 20.656C125.461 21.2 125.741 21.944 125.741 22.888C125.741 23.992 125.341 24.944 124.541 25.744C123.757 26.528 122.421 27.152 120.533 27.616C120.933 28.352 121.693 28.72 122.813 28.72C123.533 28.72 124.349 28.472 125.261 27.976C126.189 27.464 126.989 26.8 127.661 25.984C127.853 25.76 128.069 25.648 128.309 25.648ZM122.261 22.168C121.669 22.168 121.165 22.512 120.749 23.2C120.349 23.888 120.149 24.72 120.149 25.696V25.744C121.093 25.52 121.837 25.184 122.381 24.736C122.925 24.288 123.197 23.768 123.197 23.176C123.197 22.872 123.109 22.632 122.933 22.456C122.773 22.264 122.549 22.168 122.261 22.168ZM137.731 25.648C137.939 25.648 138.099 25.744 138.211 25.936C138.339 26.128 138.403 26.392 138.403 26.728C138.403 27.368 138.251 27.864 137.947 28.216C137.259 29.064 136.507 29.76 135.691 30.304C134.875 30.848 133.939 31.12 132.883 31.12C129.619 31.12 127.987 28.824 127.987 24.232C127.987 23.528 128.011 22.816 128.059 22.096H127.123C126.643 22.096 126.315 22.008 126.139 21.832C125.979 21.656 125.899 21.376 125.899 20.992C125.899 20.096 126.259 19.648 126.979 19.648H128.347C128.619 17.888 129.035 16.28 129.595 14.824C130.155 13.368 130.827 12.208 131.611 11.344C132.411 10.48 133.267 10.048 134.179 10.048C134.851 10.048 135.379 10.344 135.763 10.936C136.147 11.528 136.339 12.272 136.339 13.168C136.339 15.648 135.299 17.808 133.219 19.648H135.907C136.163 19.648 136.347 19.704 136.459 19.816C136.571 19.928 136.627 20.136 136.627 20.44C136.627 21.544 135.723 22.096 133.915 22.096H130.987C130.955 22.896 130.939 23.52 130.939 23.968C130.939 25.632 131.131 26.8 131.515 27.472C131.915 28.144 132.539 28.48 133.387 28.48C134.075 28.48 134.683 28.272 135.211 27.856C135.739 27.44 136.363 26.816 137.083 25.984C137.275 25.76 137.491 25.648 137.731 25.648ZM133.531 12.352C133.291 12.352 133.019 12.656 132.715 13.264C132.427 13.856 132.147 14.688 131.875 15.76C131.619 16.816 131.403 17.992 131.227 19.288C132.171 18.472 132.875 17.56 133.339 16.552C133.819 15.528 134.059 14.6 134.059 13.768C134.059 12.824 133.883 12.352 133.531 12.352ZM139.593 18.232C138.921 18.232 138.417 18.08 138.081 17.776C137.745 17.456 137.577 17.016 137.577 16.456C137.577 15.896 137.793 15.432 138.225 15.064C138.673 14.68 139.225 14.488 139.881 14.488C140.473 14.488 140.953 14.632 141.321 14.92C141.689 15.208 141.873 15.616 141.873 16.144C141.873 16.784 141.665 17.296 141.249 17.68C140.833 18.048 140.281 18.232 139.593 18.232ZM139.401 31.12C138.361 31.12 137.601 30.752 137.121 30.016C136.657 29.28 136.425 28.304 136.425 27.088C136.425 26.368 136.513 25.448 136.689 24.328C136.881 23.192 137.121 22.136 137.409 21.16C137.553 20.648 137.745 20.296 137.985 20.104C138.225 19.912 138.609 19.816 139.137 19.816C139.953 19.816 140.361 20.088 140.361 20.632C140.361 21.032 140.209 21.96 139.905 23.416C139.521 25.176 139.329 26.368 139.329 26.992C139.329 27.472 139.393 27.84 139.521 28.096C139.649 28.352 139.865 28.48 140.169 28.48C140.457 28.48 140.817 28.28 141.249 27.88C141.681 27.48 142.257 26.848 142.977 25.984C143.169 25.76 143.385 25.648 143.625 25.648C143.833 25.648 143.993 25.744 144.105 25.936C144.233 26.128 144.297 26.392 144.297 26.728C144.297 27.368 144.145 27.864 143.841 28.216C142.257 30.152 140.777 31.12 139.401 31.12ZM146.315 22.096C146.283 22.896 146.267 23.52 146.267 23.968C146.267 25.12 146.323 26.024 146.435 26.68C146.563 27.32 146.763 27.784 147.035 28.072C147.323 28.344 147.715 28.48 148.211 28.48C148.467 28.48 148.771 28.4 149.123 28.24C149.475 28.08 149.795 27.872 150.083 27.616C150.259 27.456 150.435 27.376 150.611 27.376C150.803 27.376 150.955 27.488 151.067 27.712C151.195 27.92 151.259 28.176 151.259 28.48C151.259 28.784 151.195 29.08 151.067 29.368C150.955 29.656 150.779 29.896 150.539 30.088C149.707 30.776 148.763 31.12 147.707 31.12C146.187 31.12 145.075 30.488 144.371 29.224C143.667 27.944 143.315 26.28 143.315 24.232C143.315 23.528 143.339 22.816 143.387 22.096H142.451C141.971 22.096 141.643 22.008 141.467 21.832C141.307 21.656 141.227 21.376 141.227 20.992C141.227 20.096 141.587 19.648 142.307 19.648H143.675C143.947 17.888 144.363 16.28 144.923 14.824C145.483 13.368 146.155 12.208 146.939 11.344C147.739 10.48 148.595 10.048 149.507 10.048C150.179 10.048 150.707 10.344 151.091 10.936C151.475 11.528 151.667 12.272 151.667 13.168C151.667 15.648 150.627 17.808 148.547 19.648H151.235C151.491 19.648 151.675 19.704 151.787 19.816C151.899 19.928 151.955 20.136 151.955 20.44C151.955 21.544 151.051 22.096 149.243 22.096H146.315ZM148.859 12.352C148.619 12.352 148.347 12.656 148.043 13.264C147.755 13.856 147.475 14.688 147.203 15.76C146.947 16.816 146.731 17.992 146.555 19.288C147.499 18.472 148.203 17.56 148.667 16.552C149.147 15.528 149.387 14.6 149.387 13.768C149.387 12.824 149.211 12.352 148.859 12.352ZM155.426 25.384C155.106 25.384 154.842 25.312 154.634 25.168C154.426 25.024 154.322 24.8 154.322 24.496L154.346 24.304C154.618 22.512 154.986 20.472 155.45 18.184C155.914 15.896 156.346 13.92 156.746 12.256C157.002 11.232 157.698 10.72 158.834 10.72C159.858 10.72 160.37 11.048 160.37 11.704C160.37 11.848 160.346 12.008 160.298 12.184C159.882 13.88 159.33 15.936 158.642 18.352C157.954 20.752 157.298 22.84 156.674 24.616C156.498 25.128 156.082 25.384 155.426 25.384ZM154.514 31.12C153.81 31.12 153.274 30.928 152.906 30.544C152.554 30.16 152.378 29.656 152.378 29.032C152.378 28.312 152.578 27.736 152.978 27.304C153.394 26.872 153.97 26.656 154.706 26.656C155.41 26.656 155.938 26.832 156.29 27.184C156.658 27.52 156.842 28.024 156.842 28.696C156.842 29.432 156.634 30.024 156.218 30.472C155.802 30.904 155.234 31.12 154.514 31.12Z" fill="#D93D04"/>
<path d="M17.7335 54C31.7335 24 75.9054 19.0701 102.233 40.5C123.733 58 144.891 64.9286 168.233 46.5C177.733 39 178.233 27 172.733 20" stroke="#F28705" stroke-width="0.5"/>
</svg>
