<svg width="66" height="36" viewBox="0 0 66 36" fill="none" xmlns="http://www.w3.org/2000/svg">
<path d="M1.59136 10.1444L1.53046 3.26361L4.3797 3.23839C4.6769 3.23576 4.9488 3.29474 5.19539 3.41532C5.44845 3.53585 5.66638 3.70192 5.84917 3.91352C6.0319 4.11867 6.1761 4.35 6.28176 4.60752C6.38737 4.85858 6.44134 5.11656 6.44368 5.38145C6.447 5.75618 6.36615 6.11227 6.20115 6.44972C6.04254 6.78065 5.81555 7.05081 5.52018 7.26019C5.22481 7.46957 4.87684 7.57603 4.47627 7.57957L2.24728 7.5993L2.26975 10.1384L1.59136 10.1444ZM2.24196 6.99844L4.44188 6.97897C4.71323 6.97657 4.9484 6.90018 5.14737 6.74981C5.34634 6.59944 5.49969 6.40424 5.6074 6.16422C5.71512 5.92419 5.76775 5.66527 5.76529 5.38746C5.76278 5.10318 5.69585 4.84208 5.56452 4.60418C5.43319 4.36627 5.26032 4.18042 5.04591 4.04663C4.8379 3.90632 4.60791 3.83728 4.35594 3.83951L2.21417 3.85847L2.24196 6.99844ZM9.57109 10.1707C9.20928 10.1739 8.87272 10.1091 8.5614 9.97612C8.25002 9.83672 7.98021 9.6485 7.75196 9.41145C7.52366 9.16794 7.3435 8.88847 7.21148 8.57303C7.08592 8.25753 7.02154 7.91888 7.01834 7.55707C7.01416 7.08543 7.11694 6.65161 7.32666 6.25561C7.54284 5.85956 7.84049 5.54355 8.21963 5.30758C8.5987 5.06516 9.03052 4.9418 9.51508 4.93751C10.0126 4.93311 10.4465 5.0488 10.8169 5.28459C11.1937 5.52033 11.4905 5.83431 11.7072 6.22653C11.9238 6.6123 12.0342 7.03777 12.0383 7.50295C12.0388 7.55464 12.0392 7.60633 12.0397 7.65801C12.0401 7.70324 12.0372 7.7388 12.031 7.7647L7.70865 7.80296C7.74416 8.16448 7.84716 8.48664 8.01766 8.76943C8.19456 9.0457 8.41943 9.26663 8.69227 9.43221C8.97152 9.59127 9.27266 9.66937 9.59571 9.66651C9.92521 9.66359 10.2346 9.57686 10.5238 9.4063C10.8196 9.23569 11.0244 9.01419 11.1382 8.74181L11.7114 8.89181C11.6101 9.13177 11.4538 9.34961 11.2423 9.54533C11.0308 9.74104 10.7802 9.8951 10.4904 10.0075C10.207 10.1134 9.90059 10.1678 9.57109 10.1707ZM7.68506 7.32826L11.4162 7.29523C11.3871 6.92719 11.2841 6.60504 11.1072 6.32876C10.9368 6.05243 10.7119 5.83797 10.4328 5.68537C10.16 5.52625 9.85882 5.44815 9.52932 5.45106C9.19982 5.45398 8.9001 5.5374 8.63018 5.70132C8.36019 5.85878 8.13924 6.08042 7.96731 6.36625C7.80179 6.64555 7.7077 6.96622 7.68506 7.32826ZM12.7162 7.53572C12.712 7.05762 12.8051 6.62065 12.9954 6.22483C13.1921 5.82248 13.4639 5.50024 13.8107 5.2581C14.1574 5.01596 14.5537 4.89292 14.9995 4.88897C15.4195 4.88525 15.7952 4.995 16.1267 5.21822C16.4646 5.43491 16.7286 5.70072 16.9188 6.01564L16.8915 2.93382L17.5505 2.92799L17.6061 9.20793C17.6069 9.29839 17.6269 9.36605 17.6661 9.41094C17.7052 9.44936 17.7635 9.47146 17.8411 9.47723L17.8458 10.0006C17.7167 10.0211 17.6166 10.0284 17.5455 10.0226C17.4098 10.0173 17.2897 9.96348 17.1855 9.86102C17.0812 9.75857 17.0285 9.64596 17.0274 9.5232L17.023 9.02895C16.8257 9.36022 16.5566 9.62429 16.2159 9.82114C15.8752 10.018 15.5207 10.1181 15.1524 10.1213C14.8035 10.1244 14.4799 10.0562 14.1814 9.91669C13.8894 9.77712 13.6325 9.58555 13.4107 9.34199C13.1953 9.09836 13.0248 8.82203 12.8993 8.513C12.7802 8.19744 12.7192 7.87169 12.7162 7.53572ZM16.9388 8.27371L16.925 6.71342C16.8389 6.48157 16.7014 6.27279 16.5124 6.08709C16.3233 5.89492 16.1088 5.74498 15.8687 5.63726C15.6351 5.52302 15.402 5.46693 15.1694 5.46899C14.8981 5.47139 14.6531 5.53171 14.4344 5.64995C14.2157 5.76173 14.0265 5.91525 13.8667 6.1105C13.7133 6.3057 13.5957 6.52643 13.5139 6.77268C13.4321 7.01894 13.3923 7.27128 13.3946 7.52972C13.397 7.80107 13.4445 8.05911 13.5372 8.30382C13.6362 8.54847 13.7739 8.76694 13.95 8.95922C14.1261 9.14504 14.3277 9.28864 14.5547 9.39001C14.7818 9.49139 15.0278 9.5409 15.2927 9.53855C15.4606 9.53707 15.6348 9.50322 15.8151 9.43701C15.9955 9.3708 16.1659 9.28206 16.3265 9.1708C16.4934 9.05302 16.6311 8.91611 16.7396 8.76008C16.848 8.60405 16.9144 8.44192 16.9388 8.27371ZM21.5865 5.49942C21.1473 5.51623 20.7607 5.64242 20.4268 5.87799C20.0994 6.11349 19.8696 6.43536 19.7375 6.8436L19.7653 9.98357L19.1063 9.9894L19.0616 4.94025L19.6819 4.93476L19.6926 6.14617C19.8639 5.78928 20.0907 5.49974 20.373 5.27756C20.6618 5.05531 20.9676 4.92984 21.2904 4.90114C21.355 4.89411 21.4099 4.89039 21.4551 4.88999C21.5068 4.88953 21.5488 4.89239 21.5812 4.89857L21.5865 5.49942ZM22.0651 8.50941C22.0623 8.19283 22.1503 7.92067 22.3292 7.69294C22.5081 7.45875 22.7553 7.27888 23.0708 7.15332C23.3927 7.02124 23.7636 6.95335 24.1835 6.94963C24.4291 6.94746 24.6844 6.96458 24.9497 7.001C25.2149 7.03742 25.4512 7.09348 25.6587 7.16918L25.6549 6.74277C25.6511 6.31635 25.5221 5.97827 25.2679 5.72853C25.0137 5.47878 24.6637 5.35589 24.2179 5.35983C23.9466 5.36223 23.6789 5.41629 23.4149 5.52201C23.1574 5.62121 22.8873 5.76898 22.6047 5.96532L22.3486 5.50237C22.6761 5.27333 22.9977 5.10248 23.3133 4.98985C23.6288 4.87075 23.9514 4.80974 24.2809 4.80683C24.9011 4.80134 25.3937 4.97467 25.7587 5.32681C26.1236 5.67896 26.3089 6.16838 26.3144 6.79508L26.3351 9.13068C26.3359 9.22113 26.3559 9.2888 26.395 9.33368C26.4341 9.3721 26.4957 9.39417 26.5798 9.39989L26.5844 9.92322C26.5134 9.93031 26.4521 9.93731 26.4004 9.94423C26.3488 9.95115 26.31 9.95149 26.2841 9.94526C26.1226 9.94023 25.9994 9.88963 25.9145 9.79346C25.8297 9.69729 25.7835 9.59432 25.7761 9.48454L25.7631 9.11636C25.5396 9.4091 25.2476 9.63783 24.8872 9.80255C24.5268 9.96082 24.1592 10.0416 23.7845 10.0449C23.4614 10.0478 23.1669 9.98254 22.9008 9.84921C22.6411 9.70936 22.4359 9.52379 22.2853 9.29252C22.141 9.05473 22.0676 8.79369 22.0651 8.50941ZM25.4508 8.86713C25.5211 8.77605 25.5752 8.68834 25.6132 8.60401C25.6512 8.51967 25.67 8.4452 25.6694 8.38059L25.6629 7.64406C25.4425 7.56201 25.2125 7.49943 24.9731 7.45632C24.7401 7.41315 24.5041 7.39263 24.265 7.39474C23.7934 7.39892 23.413 7.49597 23.1239 7.68591C22.8349 7.87585 22.6917 8.13234 22.6946 8.45538C22.6963 8.64275 22.7463 8.81999 22.8447 8.98711C22.943 9.14778 23.0864 9.2822 23.2747 9.39037C23.463 9.49209 23.6831 9.54183 23.9351 9.5396C24.2517 9.5368 24.5451 9.47282 24.8154 9.34766C25.0921 9.22245 25.3039 9.06227 25.4508 8.86713ZM39.306 9.81063L39.2451 2.92982L43.7612 2.88985L43.7665 3.49071L39.9288 3.52468L39.9511 6.0541L43.188 6.02545L43.193 6.58755L39.9561 6.6162L39.9843 9.80463L39.306 9.81063ZM46.7077 9.84204C46.3459 9.84524 46.0093 9.78038 45.698 9.64745C45.3931 9.50799 45.1265 9.31974 44.8982 9.08269C44.6764 8.83913 44.5027 8.56282 44.3772 8.25379C44.2517 7.93829 44.1874 7.6061 44.1843 7.25722C44.1811 6.89541 44.2395 6.5589 44.3595 6.24769C44.4794 5.93003 44.6514 5.65067 44.8754 5.40961C45.0994 5.1621 45.3626 4.96916 45.6651 4.83079C45.9739 4.68591 46.3093 4.61187 46.6711 4.60867C47.0329 4.60546 47.3662 4.67359 47.6712 4.81304C47.976 4.94603 48.2426 5.13428 48.4709 5.37779C48.6991 5.61484 48.876 5.89111 49.0016 6.20661C49.1271 6.51564 49.1915 6.85107 49.1947 7.21287C49.1977 7.56176 49.1393 7.89504 49.0194 8.2127C48.8993 8.52391 48.7274 8.80327 48.5034 9.05079C48.2859 9.29178 48.0226 9.48472 47.7138 9.62961C47.4113 9.76797 47.076 9.83878 46.7077 9.84204ZM44.853 7.26099C44.8564 7.63572 44.9402 7.97743 45.1044 8.28612C45.2751 8.58829 45.5001 8.8286 45.7796 9.00705C46.0589 9.17903 46.3666 9.26354 46.7025 9.26057C47.0385 9.25759 47.3446 9.16442 47.6208 8.98106C47.897 8.7977 48.1178 8.55021 48.283 8.23861C48.4482 7.92054 48.5291 7.57737 48.5259 7.2091C48.5226 6.83437 48.4355 6.49269 48.2648 6.18405C48.0941 5.87542 47.869 5.63188 47.5896 5.45344C47.3102 5.27499 47.0025 5.18726 46.6665 5.19023C46.3306 5.1932 46.0245 5.2896 45.7483 5.47942C45.4786 5.66919 45.2612 5.91988 45.0959 6.23148C44.9306 6.53663 44.8497 6.8798 44.853 7.26099ZM52.7992 5.22318C52.36 5.23999 51.9734 5.36618 51.6395 5.60174C51.3121 5.83725 51.0823 6.15912 50.9502 6.56735L50.978 9.70733L50.319 9.71316L50.2743 4.664L50.8946 4.65851L50.9053 5.86992C51.0766 5.51303 51.3034 5.2235 51.5858 5.00131C51.8745 4.77907 52.1804 4.6536 52.5032 4.62489C52.5677 4.61786 52.6226 4.61414 52.6678 4.61374C52.7195 4.61329 52.7615 4.61615 52.7939 4.62232L52.7992 5.22318ZM57.9614 9.64552L57.3024 9.65135L57.2775 6.83119C57.2722 6.23679 57.1812 5.80469 57.0043 5.53488C56.8274 5.2586 56.5516 5.12213 56.1769 5.12544C55.9184 5.12773 55.6638 5.1946 55.413 5.32604C55.1621 5.45103 54.9407 5.62422 54.7488 5.8456C54.5633 6.06047 54.4298 6.30718 54.3483 6.58574L54.3757 9.67726L53.7167 9.68309L53.672 4.63393L54.2728 4.62862L54.2829 5.77219C54.4165 5.52547 54.5922 5.31069 54.8103 5.12785C55.0283 4.93854 55.2758 4.79097 55.5527 4.68513C55.8296 4.5793 56.1166 4.52507 56.4138 4.52244C56.6916 4.51998 56.9279 4.56958 57.1227 4.67124C57.3174 4.7729 57.4738 4.92012 57.5918 5.11292C57.7097 5.29926 57.7958 5.52787 57.8499 5.79877C57.9039 6.06321 57.9324 6.36018 57.9353 6.68968L57.9614 9.64552ZM61.5191 9.71096C61.1573 9.71416 60.8207 9.64929 60.5094 9.51636C60.2045 9.37691 59.9379 9.18866 59.7096 8.95161C59.4878 8.70804 59.3141 8.43174 59.1886 8.1227C59.0631 7.80721 58.9987 7.47502 58.9956 7.12613C58.9924 6.76432 59.0508 6.42782 59.1709 6.11661C59.2908 5.79894 59.4628 5.51958 59.6868 5.27853C59.9108 5.03101 60.174 4.83807 60.4764 4.69971C60.7853 4.55482 61.1206 4.48078 61.4824 4.47758C61.8442 4.47438 62.1776 4.5425 62.4825 4.68195C62.7874 4.81494 63.054 5.00319 63.2823 5.24671C63.5105 5.48376 63.6874 5.76003 63.813 6.07552C63.9385 6.38456 64.0028 6.71998 64.006 7.08179C64.0091 7.43067 63.9507 7.76395 63.8307 8.08162C63.7107 8.39283 63.5387 8.67219 63.3148 8.9197C63.0972 9.1607 62.834 9.35364 62.5252 9.49852C62.2227 9.63688 61.8873 9.7077 61.5191 9.71096ZM59.6644 7.1299C59.6677 7.50463 59.7515 7.84634 59.9158 8.15504C60.0865 8.45721 60.3115 8.69752 60.5909 8.87596C60.8703 9.04795 61.178 9.13245 61.5139 9.12948C61.8499 9.12651 62.156 9.03334 62.4322 8.84998C62.7084 8.66661 62.9291 8.41913 63.0944 8.10752C63.2595 7.78945 63.3405 7.44628 63.3372 7.07801C63.3339 6.70328 63.2469 6.3616 63.0762 6.05297C62.9055 5.74433 62.6804 5.50079 62.401 5.32235C62.1216 5.1439 61.8139 5.05617 61.4779 5.05914C61.1419 5.06212 60.8359 5.15851 60.5597 5.34834C60.29 5.5381 60.0725 5.78879 59.9073 6.1004C59.742 6.40555 59.6611 6.74871 59.6644 7.1299Z" fill="white"/>
<path d="M35.043 9.84836L31.5803 6.26387C31.2998 5.96913 31.0747 5.71913 30.9049 5.51387C30.735 5.30215 30.6138 5.11261 30.5413 4.94526C30.4687 4.77145 30.4316 4.60055 30.4301 4.43257C30.4276 4.14829 30.4996 3.89243 30.6462 3.66498C30.7993 3.43748 31.0044 3.25475 31.2617 3.11678C31.5254 2.97876 31.8187 2.90832 32.1418 2.90546C32.4454 2.90277 32.7173 2.95852 32.9574 3.0727C33.2039 3.18036 33.3991 3.33694 33.5431 3.54243C33.687 3.74145 33.7601 3.97665 33.7625 4.248C33.7651 4.53874 33.6834 4.80115 33.5175 5.03523C33.358 5.26278 33.1467 5.47788 32.8836 5.68051C32.6268 5.87662 32.3411 6.07622 32.0263 6.27931C31.763 6.46256 31.5191 6.64887 31.2946 6.83823C31.0765 7.02108 30.9038 7.21645 30.7764 7.42434C30.649 7.63223 30.5865 7.86863 30.5889 8.13352C30.5914 8.4178 30.6743 8.65937 30.8376 8.85822C31.0008 9.05062 31.2057 9.19742 31.4521 9.29862C31.7049 9.3933 31.9638 9.43947 32.2287 9.43712C32.5776 9.43404 32.8967 9.35368 33.186 9.19604C33.4818 9.03189 33.7383 8.80993 33.9555 8.53017C34.1727 8.24395 34.3378 7.91942 34.4509 7.55659C34.5704 7.19369 34.6284 6.80873 34.6248 6.40169L35.1869 6.39672C35.1913 6.88774 35.1178 7.35038 34.9666 7.78463C34.8153 8.21242 34.6022 8.58906 34.3272 8.91457C34.0587 9.24001 33.7379 9.49807 33.3649 9.68875C32.9982 9.87292 32.5984 9.96691 32.1655 9.97075C31.765 9.97429 31.396 9.90002 31.0587 9.74793C30.7213 9.58938 30.4512 9.37209 30.2485 9.09604C30.0522 8.81994 29.9524 8.49453 29.9491 8.1198C29.946 7.77091 30.0241 7.46654 30.1833 7.20667C30.3489 6.94029 30.5601 6.70258 30.8167 6.49355C31.0797 6.278 31.3557 6.07525 31.6448 5.88531C31.9403 5.68886 32.2004 5.50887 32.4251 5.34535C32.6562 5.17531 32.8356 5.00572 32.9633 4.8366C33.091 4.66101 33.1539 4.47307 33.1522 4.27279C33.1499 4.02081 33.0544 3.8149 32.8656 3.65503C32.6768 3.49517 32.4371 3.41653 32.1463 3.4191C31.9331 3.42099 31.7429 3.4679 31.5757 3.55984C31.4086 3.65178 31.2772 3.77247 31.1816 3.92193C31.086 4.07139 31.039 4.23334 31.0405 4.40778C31.0415 4.51762 31.0683 4.63368 31.1211 4.75598C31.1738 4.87182 31.2753 5.01953 31.4255 5.19912C31.5756 5.37225 31.7909 5.60295 32.0713 5.89123L35.9152 9.84064L35.043 9.84836Z" fill="#F28705"/>
<path d="M20.6735 13.3192L20.6566 8.15841L22.7936 8.1514C23.0165 8.15067 23.2201 8.19603 23.4046 8.2875C23.5939 8.37895 23.7566 8.50441 23.8928 8.66387C24.029 8.81849 24.1362 8.99259 24.2144 9.18617C24.2925 9.3749 24.3319 9.56861 24.3326 9.76729C24.3335 10.0483 24.2714 10.3151 24.1462 10.5675C24.0259 10.815 23.8545 11.0167 23.6321 11.1725C23.4097 11.3283 23.1483 11.4066 22.8478 11.4076L21.176 11.4131L21.1823 13.3175L20.6735 13.3192ZM21.1746 10.9625L22.8246 10.957C23.0281 10.9564 23.2048 10.9001 23.3546 10.7881C23.5045 10.6762 23.6203 10.5304 23.7021 10.3509C23.7839 10.1713 23.8244 9.97732 23.8238 9.76896C23.8231 9.55574 23.774 9.35964 23.6765 9.18067C23.5789 9.00169 23.4501 8.86158 23.2898 8.76035C23.1344 8.65425 22.9622 8.60151 22.7732 8.60213L21.1668 8.6074L21.1746 10.9625ZM25.0934 13.3047L25.0809 9.51769L25.5752 9.51607L25.5876 13.3031L25.0934 13.3047ZM25.0783 8.7254L25.076 7.99853L25.5702 7.99691L25.5726 8.72378L25.0783 8.7254ZM26.3554 12.9662L28.882 9.87593L26.4034 9.88406L26.4022 9.51336L29.4405 9.50339L29.4416 9.83775L26.9295 12.928L29.4445 12.9197L29.4457 13.2904L26.3565 13.3005L26.3554 12.9662ZM29.9329 12.9544L32.4596 9.86419L29.981 9.87232L29.9798 9.50162L33.0181 9.49165L33.0192 9.82601L30.5071 12.9162L33.022 12.908L33.0232 13.2787L29.934 13.2888L29.9329 12.9544ZM33.5226 12.1867C33.5218 11.9493 33.589 11.7455 33.7241 11.5755C33.8592 11.4006 34.0453 11.2667 34.2825 11.1739C34.5244 11.0761 34.8029 11.0268 35.1179 11.0257C35.302 11.0251 35.4935 11.039 35.6923 11.0675C35.891 11.0959 36.068 11.1389 36.2233 11.1966L36.2223 10.8767C36.2212 10.5569 36.1259 10.3028 35.9363 10.1145C35.7467 9.92609 35.4847 9.83246 35.1503 9.83355C34.9468 9.83422 34.7458 9.87365 34.5474 9.95183C34.3538 10.0252 34.1506 10.1349 33.9379 10.2809L33.7478 9.93265C33.9944 9.76223 34.2362 9.63545 34.4734 9.55229C34.7106 9.46429 34.9527 9.41988 35.1998 9.41907C35.665 9.41754 36.0338 9.54959 36.306 9.81522C36.5782 10.0809 36.7151 10.4487 36.7167 10.9187L36.7224 12.6705C36.7226 12.7383 36.7373 12.7892 36.7665 12.823C36.7957 12.852 36.8418 12.8688 36.9048 12.8734L36.9061 13.2659C36.8528 13.2709 36.8068 13.2759 36.768 13.2809C36.7293 13.2859 36.7002 13.286 36.6808 13.2812C36.5597 13.2768 36.4675 13.2383 36.4042 13.1658C36.341 13.0933 36.3068 13.0159 36.3017 12.9335L36.2935 12.6574C36.1246 12.876 35.9047 13.0463 35.6337 13.1683C35.3628 13.2855 35.0867 13.3446 34.8057 13.3455C34.5634 13.3463 34.3427 13.2961 34.1437 13.195C33.9495 13.0891 33.7964 12.949 33.6844 12.775C33.5772 12.596 33.5233 12.3999 33.5226 12.1867ZM36.0603 12.4691C36.1134 12.4011 36.1544 12.3356 36.1832 12.2725C36.2121 12.2094 36.2264 12.1536 36.2263 12.1052L36.2245 11.5527C36.0595 11.4903 35.8873 11.4424 35.7079 11.409C35.5334 11.3757 35.3564 11.3593 35.1771 11.3599C34.8234 11.3611 34.5377 11.4323 34.3201 11.5735C34.1025 11.7148 33.9941 11.9065 33.9949 12.1488C33.9954 12.2893 34.0322 12.4225 34.1053 12.5482C34.1783 12.6691 34.2853 12.7706 34.4261 12.8525C34.5669 12.9295 34.7317 12.9678 34.9207 12.9672C35.1582 12.9664 35.3785 12.9196 35.5817 12.8269C35.7898 12.7341 35.9493 12.6149 36.0603 12.4691ZM39.6712 9.90594C39.3417 9.91672 39.0512 10.0097 38.7998 10.185C38.5533 10.3603 38.3796 10.6007 38.2789 10.9063L38.2866 13.2614L37.7923 13.263L37.7799 9.47602L38.2451 9.4745L38.2481 10.3831C38.378 10.1161 38.5493 9.89993 38.762 9.73448C38.9795 9.569 39.2094 9.47618 39.4516 9.456C39.5001 9.45099 39.5413 9.44844 39.5752 9.44832C39.6139 9.4482 39.6455 9.45052 39.6697 9.45528L39.6712 9.90594ZM40.3406 13.2547L40.3282 9.46766L40.8225 9.46604L40.8349 13.253L40.3406 13.2547ZM40.3256 8.67537L40.3232 7.9485L40.8175 7.94688L40.8199 8.67375L40.3256 8.67537ZM41.6147 12.1602C41.6139 11.9227 41.6811 11.719 41.8162 11.5489C41.9513 11.374 42.1374 11.2402 42.3746 11.1473C42.6166 11.0496 42.895 11.0002 43.21 10.9992C43.3941 10.9986 43.5856 11.0125 43.7844 11.0409C43.9831 11.0693 44.1602 11.1124 44.3154 11.17L44.3144 10.8502C44.3133 10.5304 44.218 10.2763 44.0284 10.0879C43.8388 9.89954 43.5768 9.8059 43.2424 9.807C43.0389 9.80767 42.8379 9.84709 42.6395 9.92528C42.4459 9.9986 42.2428 10.1083 42.03 10.2544L41.8399 9.9061C42.0865 9.73568 42.3283 9.6089 42.5655 9.52574C42.8027 9.43773 43.0448 9.39333 43.292 9.39252C43.7572 9.39099 44.1259 9.52304 44.3981 9.78867C44.6704 10.0543 44.8072 10.4221 44.8088 10.8922L44.8145 12.6439C44.8148 12.7118 44.8295 12.7626 44.8586 12.7964C44.8878 12.8254 44.9339 12.8422 44.9969 12.8469L44.9982 13.2394C44.9449 13.2444 44.8989 13.2494 44.8601 13.2544C44.8214 13.2593 44.7923 13.2594 44.7729 13.2546C44.6518 13.2502 44.5596 13.2117 44.4963 13.1393C44.4331 13.0668 44.3989 12.9894 44.3938 12.907L44.3856 12.6308C44.2167 12.8494 43.9968 13.0197 43.7258 13.1418C43.4549 13.259 43.1788 13.318 42.8978 13.319C42.6555 13.3197 42.4348 13.2696 42.2358 13.1685C42.0417 13.0625 41.8886 12.9225 41.7765 12.7484C41.6693 12.5695 41.6154 12.3734 41.6147 12.1602ZM44.1524 12.4426C44.2055 12.3746 44.2465 12.309 44.2753 12.2459C44.3042 12.1828 44.3186 12.1271 44.3184 12.0786L44.3166 11.5262C44.1516 11.4637 43.9794 11.4158 43.8 11.3825C43.6255 11.3491 43.4485 11.3328 43.2693 11.3334C42.9155 11.3345 42.6298 11.4057 42.4122 11.547C42.1946 11.6882 42.0862 11.88 42.087 12.1223C42.0875 12.2628 42.1243 12.3959 42.1974 12.5217C42.2705 12.6426 42.3774 12.744 42.5182 12.8259C42.659 12.903 42.8239 12.9412 43.0128 12.9406C43.2503 12.9398 43.4706 12.8931 43.6738 12.8003C43.8819 12.7076 44.0414 12.5883 44.1524 12.4426Z" fill="#D93D04"/>
<path d="M39.6124 13.4028L20.989 14.006L32.0702 29.5522" stroke="#F28705" stroke-width="0.139354"/>
<path d="M32.2003 30.6885C35.6608 29.2247 38.4449 26.5416 39.9791 23.1919C41.5133 19.8423 42.0648 15.7431 40.4468 12.6834L38.9502 13.228C40.0502 16.257 39.9009 19.61 38.5332 22.5963C37.1655 25.5825 34.6835 27.9745 31.5984 29.2795L32.2003 30.6885Z" fill="#F28705"/>
<circle cx="37.4784" cy="16.787" r="1.3859" transform="rotate(28.698 37.4784 16.787)" fill="#D93D04"/>
<circle cx="33.4854" cy="24.081" r="1.3859" transform="rotate(28.698 33.4854 24.081)" fill="#D93D04"/>
<circle cx="27.3023" cy="16.9042" r="1.3859" transform="rotate(28.698 27.3023 16.9042)" fill="#D93D04"/>
</svg>
